<?xml version="1.0" standalone="no"?><!DOCTYPE svg PUBLIC "-//W3C//DTD SVG 1.1//EN" "http://www.w3.org/Graphics/SVG/1.1/DTD/svg11.dtd"><svg t="1774843113347" class="icon" viewBox="0 0 1024 1024" version="1.1" xmlns="http://www.w3.org/2000/svg" p-id="5606" xmlns:xlink="http://www.w3.org/1999/xlink" width="128" height="128"><path d="M924.679096 422.120759a421.908188 421.908188 0 1 0-660.073474 348.087726L502.770908 1024l238.165286-253.791515a420.830517 420.830517 0 0 0 183.742902-348.087726z" fill="#FF7F15" p-id="5607"></path><path d="M502.770908 422.120759m-359.672689 0a359.672689 359.672689 0 1 0 719.345378 0 359.672689 359.672689 0 1 0-719.345378 0Z" fill="#FFFFFF" p-id="5608"></path><path d="M434.338801 498.36598h16.434482a87.830185 87.830185 0 0 0 80.825324-87.291349c0-46.339852-78.131146-176.468623-80.825324-180.779307a8.082532 8.082532 0 0 0-12.932051 0c-3.233013 4.310684-80.825323 134.708872-80.825324 180.779307a87.830185 87.830185 0 0 0 77.322893 87.291349z m8.35195-249.750249a727.42791 727.42791 0 0 1 70.318031 151.143355 101.301072 101.301072 0 0 1-86.213678 11.315545 118.543808 118.543808 0 0 0-53.883549-10.77671 709.915757 709.915757 0 0 1 69.779196-151.68219z" fill="#FF7F15" p-id="5609"></path><path d="M694.326924 200.659373h-29.905369v43.376256h-80.825324v29.366535h80.825324v74.898133h-80.825324V377.397413h80.825324v74.898133h-80.825324v29.366534h80.825324v119.352061c-11.584963-12.662634-22.092255-23.708762-32.060712-32.868965a29.635952 29.635952 0 0 0-42.298586 0l-12.662634 14.817976c-6.196608 7.274279-12.932052 15.356811-20.475748 22.900508l-3.771849-4.041266c-12.662634-13.470887-23.439344-25.05585-34.216053-35.024307a30.174787 30.174787 0 0 0-42.298586 0l-12.662634 14.817976a279.925037 279.925037 0 0 1-22.900508 25.594686 331.922661 331.922661 0 0 1-23.439344-25.594686c-4.580102-5.657773-8.621368-10.507292-12.662634-14.817976a30.174787 30.174787 0 0 0-40.143244-0.808253 186.437079 186.437079 0 0 0-50.650536 53.883549 14.817976 14.817976 0 0 0 4.580101 20.475749 15.087394 15.087394 0 0 0 20.475749-4.580102 160.03414 160.03414 0 0 1 43.106839-45.262181c1.616506 0 2.694177 0 2.42476-1.347089a155.723456 155.723456 0 0 1 11.584963 13.470887 290.162911 290.162911 0 0 0 35.024307 36.640814 14.27914 14.27914 0 0 0 9.429621 3.50243h1.347088a14.817976 14.817976 0 0 0 11.046128-3.50243 269.417745 269.417745 0 0 0 34.754889-36.640814 114.771959 114.771959 0 0 1 12.393216-12.932051c9.699039 8.890786 20.475749 20.206331 32.599547 33.4078l11.854381 12.662634v2.155342a14.27914 14.27914 0 0 0 8.35195 4.580102h3.502431a14.27914 14.27914 0 0 0 9.968456-4.041266 6.466026 6.466026 0 0 0 1.616507-2.155342 325.187218 325.187218 0 0 0 31.791294-33.946636 84.058336 84.058336 0 0 1 12.393216-13.20147c9.699039 9.160203 20.206331 20.475749 32.599547 33.677218l14.279141 15.356812a14.548558 14.548558 0 0 0 20.745166 0 16.7039 16.7039 0 0 0 3.771848-6.196608h9.968457z" fill="#FF7F15" p-id="5610"></path></svg>